<svg width="214" height="40" viewBox="0 0 214 40" fill="none" xmlns="http://www.w3.org/2000/svg">
<path d="M6.26401 0.838867V5.35762L1.38281 10.0967V0.838867H6.26401Z" fill="#F1AB27"/>
<path d="M1.37891 14.6963L6.2601 9.96191V23.176H1.37891V14.6963Z" fill="#F1AB27"/>
<path d="M30.9328 11.9904C30.9322 12.5427 30.8903 13.0941 30.8073 13.6404C30.4373 16.077 29.2541 18.3283 27.4391 20.0489C25.6241 21.7696 23.2777 22.8644 20.76 23.1654H9.92578V8.82637H14.8359V18.4029H20.3641C21.7051 18.1984 22.9505 17.6036 23.9359 16.6972C24.9212 15.7908 25.6 14.6154 25.8826 13.3264C25.9762 12.8869 26.0231 12.4392 26.0226 11.9904C26.0202 10.9898 25.7787 10.0033 25.3171 9.10856C24.8555 8.21385 24.1863 7.43531 23.3624 6.83418C22.5676 6.24718 21.6467 5.84181 20.6683 5.64825C20.3308 5.58237 19.9886 5.54163 19.6447 5.52637H9.92578V0.72168L20.2193 0.75918C23.1394 0.972401 25.8681 2.25116 27.8566 4.33828C29.8451 6.4254 30.9459 9.16609 30.9376 12.0092L30.9328 11.9904Z" fill="#F1AB27"/>
<path d="M55.0939 0.72168V5.49356H34.4297V0.72168H55.0939ZM39.3447 18.4029H55.0939V23.1748H34.4297V8.78419L39.3399 8.81231H53.0275V13.5842H39.3447V18.4029Z" fill="#F1AB27"/>
<path d="M80.0826 11.9861C80.0826 14.198 79.4071 16.3602 78.1415 18.1994C76.8759 20.0385 75.077 21.4721 72.9723 22.3187C70.8677 23.1654 68.5517 23.3871 66.3172 22.956C64.0827 22.5248 62.03 21.46 60.4188 19.8963C58.8075 18.3327 57.71 16.3402 57.2649 14.171C56.8199 12.0017 57.0473 9.75307 57.9185 7.70931C58.7897 5.66555 60.2654 3.91846 62.1592 2.68894C64.053 1.45943 66.2798 0.802685 68.558 0.801758C71.6129 0.804238 74.542 1.98324 76.7026 4.08004C78.8632 6.17685 80.0788 9.02019 80.0826 11.9861V11.9861ZM68.558 5.47051C67.2306 5.47051 65.9331 5.85265 64.8295 6.56859C63.7259 7.28454 62.8657 8.30214 62.3578 9.49272C61.8498 10.6833 61.7169 11.9934 61.9759 13.2573C62.2348 14.5212 62.874 15.6822 63.8125 16.5934C64.7511 17.5046 65.9469 18.1252 67.2487 18.3766C68.5505 18.628 69.8999 18.4989 71.1262 18.0058C72.3525 17.5126 73.4006 16.6775 74.138 15.606C74.8754 14.5345 75.269 13.2748 75.269 11.9861C75.2665 10.2588 74.5586 8.60301 73.3006 7.38163C72.0426 6.16025 70.3371 5.47299 68.558 5.47051V5.47051Z" fill="#F1AB27"/>
<path d="M104.433 0.563477V23.176H99.5228V11.0354L96.9156 13.5666L95.9113 14.5416L95.641 14.8041L94.7429 15.676L94.0912 16.3088L90.7694 13.0932L88.5002 10.89L83.6094 6.12286V0.563477H84.8309L89.5045 5.10098L94.096 9.5588L103.361 0.563477H104.433ZM83.6094 10.8197L88.5195 15.5635V23.1572H83.6094V10.8197Z" fill="#26344E"/>
<path d="M128.633 0.72168V5.49356H107.969V0.72168H128.633ZM112.884 18.4029H128.633V23.1748H107.969V8.78419L112.879 8.81231H126.567V13.5842H112.884V18.4029Z" fill="#26344E"/>
<path d="M152.949 0.727539V5.49473H132.125V0.727539H152.949ZM139.913 23.176V8.82286H144.842V23.176H139.913Z" fill="#26344E"/>
<path d="M178.425 23.1764H172.675L172.405 22.7451L166.456 13.2717L166.007 13.3561L165.834 13.3842H165.752L165.529 13.4123H165.428L165.196 13.4358H164.95H164.911H164.863H164.636H160.991V23.1764H156.066V8.75762H164.009C164.887 8.75714 165.757 8.58663 166.567 8.25606L166.64 8.22794C167.397 7.90926 168.086 7.45619 168.673 6.892C169.123 6.46083 169.508 5.97004 169.817 5.43418H156.066V0.666992H175.499L175.557 1.50137C175.557 1.76856 175.586 2.03574 175.586 2.29356C175.587 3.78193 175.283 5.25556 174.691 6.62853C174.099 8.00151 173.232 9.24634 172.139 10.2904C171.985 10.4357 171.84 10.567 171.695 10.6936L171.545 10.8201H171.521L171.328 10.9748L171.183 11.092L171.101 11.1529H171.077L170.961 11.2373L177.576 21.817L178.425 23.1764Z" fill="#26344E"/>
<path d="M186.849 0.680664V23.1807H181.934V0.680664H186.849Z" fill="#26344E"/>
<g opacity="0.75">
<path opacity="0.75" d="M86.9747 29.3045C86.8497 29.2341 86.745 29.1341 86.6706 29.0138C86.5944 28.8941 86.5543 28.7561 86.5547 28.6154C86.5542 28.4732 86.5943 28.3337 86.6706 28.2123C86.744 28.09 86.8488 27.9883 86.9747 27.917C87.1002 27.8466 87.2426 27.8096 87.3875 27.8096C87.5324 27.8096 87.6748 27.8466 87.8003 27.917C87.927 27.9874 88.0319 28.0893 88.1045 28.2123C88.1782 28.3345 88.2165 28.4738 88.2155 28.6154C88.2164 28.7555 88.178 28.8932 88.1045 29.0138C88.0309 29.1348 87.9261 29.235 87.8003 29.3045C87.6748 29.3748 87.5324 29.4118 87.3875 29.4118C87.2426 29.4118 87.1002 29.3748 86.9747 29.3045V29.3045ZM88.0079 31.0295C88.0246 31.0451 88.0376 31.0642 88.046 31.0852C88.0543 31.1063 88.0578 31.1288 88.0562 31.1513V36.0263C88.0578 36.0488 88.0543 36.0714 88.046 36.0925C88.0376 36.1135 88.0246 36.1325 88.0079 36.1482C87.9892 36.163 87.9675 36.174 87.9443 36.1804C87.9211 36.1869 87.8967 36.1887 87.8727 36.1857H86.8733C86.8504 36.1888 86.827 36.1867 86.8051 36.1796C86.7831 36.1725 86.7631 36.1605 86.7468 36.1446C86.7304 36.1287 86.718 36.1093 86.7107 36.0879C86.7033 36.0666 86.7011 36.0439 86.7044 36.0217V31.1466C86.7011 31.1244 86.7033 31.1017 86.7107 31.0804C86.718 31.059 86.7304 31.0396 86.7468 31.0237C86.7631 31.0078 86.7831 30.9958 86.8051 30.9887C86.827 30.9816 86.8504 30.9795 86.8733 30.9826H87.8727C87.8974 30.9809 87.9221 30.9842 87.9454 30.9923C87.9687 31.0003 87.99 31.013 88.0079 31.0295V31.0295Z" fill="#ADA2A2"/>
<path opacity="0.75" d="M94.8 27.4634C94.817 27.4809 94.83 27.5015 94.8383 27.5241C94.8466 27.5467 94.85 27.5707 94.8483 27.5947V36.0322C94.8507 36.0804 94.8333 36.1276 94.8 36.1634C94.7828 36.1795 94.7623 36.192 94.7399 36.2001C94.7174 36.2081 94.6935 36.2116 94.6696 36.2103H93.8585C93.8256 36.2106 93.7935 36.2008 93.7668 36.1822C93.7408 36.1659 93.7218 36.1409 93.7137 36.1119L93.6026 35.4087C93.3927 35.705 93.1108 35.9465 92.7819 36.1119C92.4459 36.279 92.073 36.3643 91.6955 36.3603C91.2295 36.366 90.7717 36.2407 90.3775 35.9994C89.9831 35.7573 89.6643 35.4153 89.4553 35.0103C89.2379 34.5716 89.125 34.0909 89.125 33.6041C89.125 33.1172 89.2379 32.6365 89.4553 32.1978C89.662 31.794 89.9794 31.4534 90.3726 31.2134C90.7693 30.9741 91.2285 30.8505 91.6955 30.8572C92.0511 30.8535 92.4029 30.9289 92.7239 31.0775C93.033 31.2224 93.3039 31.4341 93.5157 31.6962V27.6134C93.5141 27.5667 93.5314 27.5213 93.564 27.4869C93.5803 27.4709 93.6 27.4585 93.6216 27.4504C93.6432 27.4423 93.6664 27.4388 93.6895 27.44H94.6841C94.7244 27.4348 94.7652 27.4431 94.8 27.4634V27.4634ZM92.7287 34.8884C92.9637 34.7562 93.1584 34.566 93.2932 34.3372C93.428 34.1083 93.4981 33.8489 93.4964 33.5853C93.4987 33.3231 93.4269 33.0653 93.2888 32.84C93.153 32.6149 92.9581 32.4288 92.7239 32.3009C92.4855 32.1697 92.2158 32.1018 91.9418 32.1041C91.6739 32.1018 91.4103 32.1698 91.1789 32.3009C90.9477 32.4317 90.7559 32.6192 90.6228 32.8446C90.4898 33.07 90.4201 33.3255 90.4209 33.5853C90.4179 33.8514 90.4879 34.1135 90.6237 34.3447C90.7565 34.57 90.948 34.7576 91.1789 34.8884C91.411 35.0225 91.6765 35.0922 91.9466 35.09C92.2234 35.092 92.4955 35.0207 92.7336 34.8837L92.7287 34.8884Z" fill="#ADA2A2"/>
<path opacity="0.75" d="M100.156 31.2056C100.566 31.4482 100.9 31.7951 101.122 32.2088C101.351 32.6349 101.464 33.111 101.45 33.5916C101.452 33.6655 101.438 33.739 101.408 33.807C101.378 33.875 101.333 33.9358 101.276 33.9853C101.167 34.0784 101.026 34.1285 100.88 34.1259H97.3705C97.4771 34.4227 97.672 34.6821 97.9305 34.8713C98.1853 35.0611 98.4978 35.1633 98.8189 35.1619C99.2311 35.1415 99.627 34.9992 99.9535 34.7541C99.9884 34.7327 100.028 34.7198 100.069 34.7166C100.095 34.7174 100.119 34.7243 100.141 34.7365C100.163 34.7488 100.181 34.7661 100.195 34.7869L100.412 35.0822C100.512 35.2103 100.592 35.3181 100.654 35.4056C100.678 35.442 100.691 35.4842 100.692 35.5275C100.692 35.5518 100.686 35.5758 100.675 35.5976C100.665 35.6195 100.649 35.6388 100.629 35.6541C100.128 36.0951 99.4762 36.3405 98.7996 36.3431C98.2912 36.349 97.7906 36.221 97.3511 35.9728C96.9206 35.7309 96.5614 35.3855 96.3083 34.9697C96.0518 34.5517 95.9182 34.0734 95.922 33.5869C95.9182 33.2249 95.9887 32.8658 96.1294 32.5306C96.2702 32.1953 96.4784 31.8907 96.7418 31.6345C97.0052 31.3783 97.3186 31.1757 97.6637 31.0385C98.0087 30.9012 98.3784 30.8322 98.7513 30.8353C99.2463 30.8272 99.7334 30.9557 100.156 31.2056V31.2056ZM97.834 32.3916C97.5866 32.5802 97.4157 32.8474 97.3511 33.1463H100.089C100.026 32.8523 99.8648 32.5869 99.63 32.3916C99.389 32.1978 99.0834 32.0961 98.7706 32.1056C98.4339 32.0945 98.1035 32.1954 97.834 32.3916V32.3916Z" fill="#ADA2A2"/>
<path opacity="0.75" d="M106.027 31.074C106.381 31.2237 106.681 31.473 106.887 31.7897C107.094 32.1064 107.198 32.4759 107.186 32.8505V36.0099C107.188 36.0581 107.171 36.1053 107.138 36.1412C107.121 36.1571 107.102 36.1696 107.08 36.1777C107.058 36.1857 107.035 36.1893 107.012 36.188H106.259C106.226 36.1891 106.194 36.1792 106.167 36.1599C106.142 36.1428 106.123 36.1181 106.114 36.0896L106.022 35.5646C105.82 35.8159 105.556 36.0141 105.255 36.1412C104.899 36.2908 104.513 36.3628 104.125 36.3521C103.772 36.3578 103.423 36.2874 103.101 36.1459C102.808 36.0239 102.559 35.8194 102.387 35.5586C102.215 35.2979 102.127 34.993 102.136 34.6834C102.122 34.4758 102.158 34.268 102.242 34.0767C102.326 33.8853 102.455 33.7158 102.619 33.5818C103.017 33.3098 103.498 33.176 103.985 33.2021H105.815V32.949C105.822 32.8086 105.798 32.6683 105.744 32.538C105.69 32.4076 105.607 32.2903 105.501 32.1943C105.28 32.0055 104.993 31.9065 104.699 31.9177C104.436 31.9191 104.174 31.949 103.917 32.0068C103.679 32.0555 103.45 32.1376 103.237 32.2505C103.188 32.2731 103.136 32.2858 103.082 32.288C103.048 32.2931 103.013 32.2871 102.982 32.271C102.952 32.255 102.927 32.2297 102.913 32.199L102.619 31.6412C102.602 31.6075 102.594 31.5706 102.594 31.5333C102.598 31.4812 102.617 31.431 102.648 31.3887C102.68 31.3464 102.723 31.3137 102.773 31.2943C103.051 31.1367 103.352 31.0227 103.666 30.9568C104.008 30.8772 104.358 30.8363 104.709 30.8349C105.161 30.8192 105.611 30.9008 106.027 31.074V31.074ZM105.187 35.1615C105.381 35.0733 105.547 34.9376 105.67 34.7677C105.789 34.605 105.852 34.4096 105.849 34.2099V34.0787H104.197C104.025 34.0729 103.855 34.1223 103.715 34.2193C103.655 34.2663 103.607 34.3266 103.576 34.3951C103.545 34.4636 103.531 34.5383 103.536 34.613C103.536 34.7138 103.562 34.8128 103.613 34.9007C103.664 34.9885 103.737 35.0622 103.826 35.1146C104.037 35.2501 104.287 35.3188 104.54 35.3115C104.764 35.3105 104.985 35.2609 105.187 35.1662V35.1615Z" fill="#ADA2A2"/>
<path opacity="0.75" d="M107.97 31.1527C107.967 31.1306 107.969 31.108 107.976 31.0868C107.984 31.0656 107.996 31.0464 108.013 31.0308C108.029 31.0152 108.049 31.0037 108.071 30.9972C108.093 30.9907 108.117 30.9893 108.139 30.9933H108.743V29.5074C108.74 29.4646 108.752 29.4223 108.778 29.3873C108.803 29.3523 108.84 29.3269 108.883 29.3152L109.887 28.9308H109.955C109.973 28.9299 109.991 28.9332 110.008 28.9406C110.025 28.9479 110.04 28.959 110.051 28.973C110.075 29.0057 110.087 29.0454 110.085 29.0855V30.998H111.365C111.387 30.994 111.411 30.9954 111.433 31.0019C111.455 31.0084 111.475 31.0199 111.491 31.0355C111.508 31.0511 111.52 31.0703 111.528 31.0915C111.535 31.1127 111.537 31.1353 111.534 31.1574V32.0949C111.536 32.1168 111.533 32.1389 111.525 32.1597C111.518 32.1804 111.505 32.1991 111.489 32.2145C111.473 32.2298 111.453 32.2414 111.431 32.2483C111.41 32.2552 111.387 32.2572 111.365 32.2543H110.08V36.0558C110.08 36.1621 110.027 36.2152 109.921 36.2152H108.907C108.885 36.2182 108.862 36.2161 108.84 36.2092C108.819 36.2023 108.799 36.1908 108.783 36.1754C108.766 36.1601 108.754 36.1413 108.746 36.1206C108.738 36.0999 108.736 36.0777 108.738 36.0558V32.2308H108.149C108.127 32.2338 108.104 32.2317 108.082 32.2249C108.061 32.218 108.041 32.2064 108.025 32.1911C108.008 32.1757 107.996 32.157 107.988 32.1362C107.98 32.1155 107.978 32.0934 107.98 32.0714L107.97 31.1527Z" fill="#ADA2A2"/>
<path opacity="0.75" d="M115.969 31.2056C116.379 31.4482 116.713 31.7951 116.934 32.2088C117.164 32.6349 117.277 33.111 117.263 33.5916C117.265 33.6655 117.25 33.739 117.22 33.807C117.19 33.875 117.145 33.9358 117.089 33.9853C116.98 34.0784 116.838 34.1285 116.693 34.1259H113.183C113.29 34.4227 113.485 34.6821 113.743 34.8713C113.998 35.0611 114.31 35.1633 114.631 35.1619C115.044 35.1415 115.439 34.9992 115.766 34.7541C115.801 34.7327 115.841 34.7198 115.882 34.7166C115.907 34.7174 115.932 34.7243 115.954 34.7365C115.976 34.7488 115.994 34.7661 116.007 34.7869L116.225 35.0822C116.324 35.2103 116.405 35.3181 116.466 35.4056C116.49 35.442 116.504 35.4842 116.505 35.5275C116.505 35.5518 116.499 35.5758 116.488 35.5976C116.477 35.6195 116.461 35.6388 116.442 35.6541C115.94 36.0951 115.289 36.3405 114.612 36.3431C114.104 36.349 113.603 36.221 113.164 35.9728C112.733 35.7309 112.374 35.3855 112.121 34.9697C111.864 34.5517 111.731 34.0734 111.735 33.5869C111.731 33.2249 111.801 32.8658 111.942 32.5306C112.083 32.1953 112.291 31.8907 112.554 31.6345C112.818 31.3783 113.131 31.1757 113.476 31.0385C113.821 30.9012 114.191 30.8322 114.564 30.8353C115.059 30.8272 115.546 30.9557 115.969 31.2056V31.2056ZM113.646 32.3916C113.399 32.5802 113.228 32.8474 113.164 33.1463H115.877C115.808 32.8493 115.638 32.5835 115.394 32.3916C115.153 32.1978 114.848 32.0961 114.535 32.1056C114.215 32.105 113.903 32.2053 113.646 32.3916V32.3916Z" fill="#ADA2A2"/>
<path opacity="0.75" d="M121.278 33.1679C121.276 33.1385 121.28 33.109 121.291 33.0815C121.302 33.054 121.319 33.0291 121.341 33.0087C121.381 32.9721 121.435 32.952 121.49 32.9525H124.648C124.704 32.9495 124.76 32.968 124.802 33.004C124.821 33.0233 124.835 33.0462 124.845 33.0712C124.854 33.0962 124.857 33.1227 124.855 33.1492V33.9455C124.857 33.9727 124.852 34 124.842 34.0252C124.831 34.0503 124.814 34.0727 124.793 34.0907C124.746 34.1261 124.688 34.1444 124.629 34.1422H121.49C121.436 34.1422 121.383 34.124 121.341 34.0907C121.319 34.0727 121.303 34.0503 121.292 34.0252C121.281 34 121.276 33.9727 121.278 33.9455V33.1679Z" fill="#ADA2A2"/>
<path opacity="0.75" d="M134.543 27.4641C134.559 27.4817 134.572 27.5024 134.581 27.525C134.589 27.5475 134.592 27.5715 134.591 27.5954V36.0329C134.593 36.0811 134.576 36.1283 134.543 36.1641C134.525 36.1808 134.504 36.1936 134.48 36.2017C134.457 36.2098 134.432 36.213 134.408 36.211H133.596C133.564 36.2113 133.531 36.2015 133.505 36.1829C133.479 36.1666 133.46 36.1415 133.452 36.1125L133.341 35.4094C133.131 35.7057 132.849 35.9472 132.52 36.1125C132.184 36.2797 131.811 36.3649 131.433 36.361C130.969 36.3658 130.513 36.2405 130.12 36C129.726 35.758 129.407 35.416 129.198 35.011C128.98 34.5723 128.867 34.0917 128.867 33.6047C128.867 33.1178 128.98 32.6371 129.198 32.1985C129.405 31.7946 129.722 31.4539 130.115 31.2141C130.512 30.9748 130.971 30.8511 131.438 30.8579C131.794 30.8542 132.146 30.9296 132.467 31.0782C132.773 31.2165 133.044 31.4199 133.258 31.6735V27.5907C133.257 27.544 133.274 27.4985 133.307 27.4641C133.323 27.4481 133.343 27.4357 133.364 27.4276C133.386 27.4195 133.409 27.416 133.432 27.4172H134.427C134.47 27.4191 134.511 27.4357 134.543 27.4641V27.4641ZM132.471 34.8891C132.711 34.7589 132.91 34.569 133.048 34.3391C133.186 34.1092 133.259 33.8476 133.258 33.5813C133.261 33.3191 133.189 33.0613 133.051 32.836C132.915 32.611 132.72 32.425 132.486 32.2969C132.248 32.1657 131.978 32.0978 131.704 32.1C131.436 32.0978 131.172 32.1658 130.941 32.2969C130.71 32.4276 130.518 32.6151 130.385 32.8406C130.252 33.066 130.182 33.3215 130.183 33.5813C130.181 33.8438 130.25 34.1022 130.383 34.3308C130.516 34.5594 130.708 34.7503 130.941 34.8844C131.173 35.0185 131.439 35.0882 131.709 35.086C131.977 35.0853 132.24 35.0157 132.471 34.8844V34.8891Z" fill="#ADA2A2"/>
<path opacity="0.75" d="M139.892 31.2054C140.302 31.448 140.636 31.7949 140.857 32.2086C141.087 32.6347 141.2 33.1108 141.186 33.5914C141.188 33.6653 141.173 33.7388 141.143 33.8068C141.113 33.8748 141.068 33.9356 141.012 33.9851C140.903 34.0782 140.761 34.1284 140.616 34.1258H137.12C137.227 34.4225 137.422 34.6819 137.681 34.8711C137.935 35.0609 138.248 35.1631 138.569 35.1617C138.981 35.1413 139.377 34.999 139.703 34.7539C139.738 34.7325 139.778 34.7196 139.819 34.7164C139.845 34.7172 139.869 34.7241 139.891 34.7364C139.913 34.7486 139.931 34.7659 139.945 34.7867L140.162 35.082C140.262 35.2101 140.342 35.3179 140.404 35.4054C140.428 35.4418 140.441 35.484 140.442 35.5273C140.442 35.5516 140.436 35.5756 140.425 35.5975C140.415 35.6193 140.399 35.6386 140.379 35.6539C139.878 36.0949 139.226 36.3403 138.55 36.3429C138.041 36.3485 137.541 36.2206 137.101 35.9726C136.671 35.7307 136.311 35.3853 136.058 34.9695C135.802 34.5515 135.668 34.0732 135.672 33.5867C135.668 33.2247 135.739 32.8656 135.879 32.5304C136.02 32.1952 136.228 31.8905 136.492 31.6343C136.755 31.3781 137.069 31.1755 137.414 31.0383C137.759 30.9011 138.128 30.832 138.501 30.8351C138.991 30.8297 139.473 30.958 139.892 31.2054V31.2054ZM137.569 32.3914C137.322 32.58 137.151 32.8472 137.087 33.1461H139.824C139.762 32.8521 139.6 32.5867 139.366 32.3914C139.124 32.1976 138.819 32.0959 138.506 32.1054C138.169 32.0943 137.839 32.1952 137.569 32.3914V32.3914Z" fill="#ADA2A2"/>
<path opacity="0.75" d="M143.734 32.1327C143.68 32.1637 143.635 32.2084 143.604 32.262C143.574 32.3155 143.558 32.3761 143.56 32.4374C143.558 32.5145 143.586 32.5896 143.637 32.6483C143.72 32.7251 143.819 32.7828 143.927 32.8171C144.131 32.8902 144.339 32.9513 144.55 32.9999C144.922 33.0823 145.281 33.2082 145.622 33.3749C145.884 33.5046 146.107 33.6985 146.269 33.9374C146.428 34.1944 146.507 34.4908 146.496 34.7905C146.508 35.0164 146.46 35.2416 146.358 35.445C146.256 35.6483 146.102 35.8231 145.911 35.953C145.434 36.2441 144.876 36.385 144.313 36.3561C143.902 36.3574 143.492 36.2941 143.102 36.1686C142.755 36.0613 142.421 35.9216 142.102 35.7514C142.067 35.738 142.036 35.7149 142.014 35.685C141.992 35.6551 141.979 35.6196 141.977 35.5827C141.977 35.5371 141.992 35.4928 142.02 35.4561L142.43 34.7811C142.446 34.7494 142.471 34.7225 142.502 34.7035C142.532 34.6845 142.568 34.674 142.604 34.6733C142.652 34.6756 142.698 34.6884 142.739 34.7108C143.226 34.9768 143.77 35.1263 144.328 35.1468C144.556 35.1563 144.784 35.1229 144.999 35.0483C145.067 35.0254 145.125 34.9822 145.166 34.9249C145.207 34.8676 145.228 34.7992 145.226 34.7296C145.224 34.6554 145.201 34.5832 145.159 34.5211C145.117 34.459 145.059 34.4094 144.989 34.378C144.753 34.2588 144.501 34.1705 144.241 34.1155C143.868 34.0324 143.505 33.9098 143.159 33.7499C142.902 33.6297 142.683 33.4432 142.527 33.2108C142.372 32.9508 142.296 32.6532 142.31 32.353C142.309 32.084 142.388 31.8205 142.537 31.5936C142.701 31.3499 142.932 31.1552 143.203 31.0311C143.529 30.8828 143.886 30.8106 144.246 30.8202C144.604 30.8207 144.961 30.8728 145.303 30.9749C145.615 31.0619 145.915 31.1847 146.196 31.3405C146.224 31.3582 146.247 31.3817 146.264 31.4094C146.28 31.437 146.29 31.4679 146.293 31.4999C146.291 31.5453 146.276 31.5892 146.249 31.6264L145.849 32.278C145.833 32.3121 145.808 32.3415 145.777 32.3629C145.745 32.3844 145.708 32.3972 145.67 32.3999H145.602C145.385 32.2889 145.157 32.1979 144.922 32.128C144.691 32.0558 144.45 32.0179 144.207 32.0155C144.041 32.0121 143.878 32.0526 143.734 32.1327V32.1327Z" fill="#ADA2A2"/>
<path opacity="0.75" d="M147.928 29.3045C147.803 29.2343 147.698 29.1343 147.624 29.0138C147.548 28.8941 147.507 28.7561 147.508 28.6154C147.507 28.4732 147.547 28.3337 147.624 28.2123C147.697 28.0899 147.802 27.9881 147.928 27.917C148.053 27.8466 148.196 27.8096 148.341 27.8096C148.486 27.8096 148.628 27.8466 148.753 27.917C148.88 27.9876 148.985 28.0895 149.058 28.2123C149.131 28.3345 149.17 28.4738 149.169 28.6154C149.17 28.7556 149.131 28.8933 149.058 29.0138C148.984 29.1346 148.879 29.2348 148.753 29.3045C148.628 29.3744 148.485 29.4111 148.341 29.4111C148.196 29.4111 148.054 29.3744 147.928 29.3045ZM148.961 31.0295C148.978 31.0451 148.991 31.0642 148.999 31.0852C149.007 31.1063 149.011 31.1288 149.009 31.1513V36.0263C149.011 36.0488 149.007 36.0714 148.999 36.0925C148.991 36.1135 148.978 36.1325 148.961 36.1482C148.927 36.1779 148.881 36.193 148.836 36.1904H147.836C147.813 36.1935 147.79 36.1914 147.768 36.1843C147.746 36.1771 147.726 36.1652 147.71 36.1492C147.693 36.1333 147.681 36.114 147.673 36.0926C147.666 36.0713 147.664 36.0486 147.667 36.0263V31.1466C147.664 31.1244 147.666 31.1017 147.673 31.0804C147.681 31.059 147.693 31.0396 147.71 31.0237C147.726 31.0078 147.746 30.9958 147.768 30.9887C147.79 30.9816 147.813 30.9795 147.836 30.9826H148.836C148.882 30.9817 148.927 30.9986 148.961 31.0295V31.0295Z" fill="#ADA2A2"/>
<path opacity="0.75" d="M154.818 36.1168C155.104 36.2257 155.35 36.4131 155.528 36.6559C155.699 36.9055 155.786 37.2001 155.779 37.4996C155.789 37.8734 155.67 38.2398 155.441 38.5403C155.191 38.8467 154.856 39.0776 154.475 39.2059C154.011 39.3661 153.52 39.4439 153.027 39.4356C152.595 39.4349 152.164 39.402 151.738 39.3371C151.356 39.2866 150.982 39.1938 150.623 39.0606C150.583 39.043 150.55 39.0155 150.526 38.9809C150.503 38.9475 150.492 38.9083 150.492 38.8684C150.487 38.8405 150.487 38.8119 150.492 38.784L150.782 38.0809C150.796 38.0432 150.821 38.0105 150.854 37.9871C150.887 37.9651 150.926 37.9536 150.965 37.9543H151.038C151.337 38.0566 151.646 38.1304 151.96 38.1746C152.305 38.2298 152.653 38.258 153.003 38.259C153.394 38.2746 153.784 38.2156 154.152 38.0856C154.432 37.9699 154.572 37.8043 154.572 37.5887C154.579 37.5094 154.563 37.4299 154.527 37.3587C154.49 37.2876 154.434 37.2276 154.364 37.1856C154.168 37.0926 153.95 37.0506 153.732 37.0637H152.134C151.803 37.071 151.473 37.0103 151.168 36.8856C150.907 36.7797 150.683 36.6041 150.521 36.3793C150.364 36.1524 150.283 35.8839 150.289 35.6106C150.286 35.3783 150.344 35.1492 150.458 34.9449C150.567 34.7448 150.735 34.5813 150.941 34.4762C150.78 34.2831 150.654 34.0642 150.569 33.8293C150.481 33.5821 150.437 33.3221 150.439 33.0606C150.43 32.6517 150.532 32.2477 150.734 31.8887C150.926 31.5493 151.212 31.2686 151.559 31.0777C151.921 30.8789 152.331 30.7769 152.747 30.7824C152.885 30.7865 153.022 30.8021 153.157 30.8293C153.321 30.8593 153.482 30.9 153.64 30.9512H155.301C155.368 30.9483 155.433 30.9701 155.484 31.0121C155.508 31.0345 155.526 31.0617 155.538 31.0916C155.55 31.1216 155.554 31.1536 155.552 31.1856V31.7856C155.552 31.8163 155.546 31.8467 155.533 31.8749C155.521 31.9031 155.503 31.9285 155.48 31.9496C155.456 31.973 155.427 31.9913 155.395 32.0034C155.364 32.0155 155.33 32.0211 155.296 32.0199H154.741C154.957 32.3285 155.072 32.6924 155.074 33.0653C155.084 33.4659 154.98 33.8615 154.775 34.209C154.574 34.5453 154.282 34.8211 153.93 35.0059C153.558 35.2004 153.14 35.2988 152.718 35.2918C152.385 35.2924 152.056 35.2253 151.752 35.0949C151.673 35.1283 151.606 35.1837 151.559 35.2543C151.511 35.3303 151.486 35.4181 151.487 35.5074C151.488 35.5643 151.505 35.6198 151.537 35.6678C151.568 35.7157 151.613 35.7543 151.665 35.7793C151.804 35.8539 151.961 35.8896 152.119 35.8824H153.727C154.103 35.8872 154.475 35.9669 154.818 36.1168ZM152.216 32.1699C152.054 32.2625 151.921 32.3952 151.83 32.5543C151.735 32.7189 151.686 32.9048 151.69 33.0934C151.688 33.2773 151.736 33.4584 151.83 33.6184C151.92 33.7743 152.052 33.9038 152.211 33.9934C152.375 34.0851 152.562 34.1321 152.752 34.1293C152.947 34.1319 153.14 34.085 153.312 33.9934C153.477 33.9054 153.614 33.7757 153.709 33.6181C153.804 33.4605 153.854 33.2808 153.853 33.0981C153.856 32.9075 153.805 32.7196 153.708 32.5543C153.613 32.3943 153.477 32.2616 153.312 32.1699C153.145 32.0762 152.954 32.0276 152.761 32.0293C152.57 32.0264 152.381 32.075 152.216 32.1699V32.1699Z" fill="#ADA2A2"/>
<path opacity="0.75" d="M160.676 31.1109C161.004 31.3059 161.265 31.5916 161.424 31.9313C161.605 32.323 161.695 32.7489 161.685 33.1781V35.9906C161.686 36.0131 161.682 36.0354 161.674 36.0563C161.665 36.0772 161.653 36.0963 161.637 36.1125C161.619 36.1287 161.597 36.1413 161.574 36.1493C161.551 36.1574 161.526 36.1608 161.502 36.1594H160.536C160.512 36.1604 160.488 36.1568 160.466 36.1488C160.444 36.1407 160.423 36.1284 160.406 36.1125C160.39 36.0965 160.377 36.0774 160.369 36.0564C160.36 36.0355 160.357 36.0131 160.357 35.9906V33.1735C160.359 32.9752 160.304 32.7805 160.198 32.611C160.096 32.4436 159.949 32.306 159.773 32.2125C159.595 32.1161 159.393 32.066 159.189 32.0672C158.973 32.066 158.76 32.1193 158.571 32.2219C158.384 32.322 158.229 32.4694 158.122 32.6484C158.011 32.8332 157.954 33.044 157.958 33.2578V36.0141C157.962 36.0373 157.96 36.0612 157.953 36.0837C157.946 36.1062 157.933 36.1267 157.916 36.1436C157.899 36.1605 157.879 36.1732 157.856 36.1809C157.833 36.1885 157.808 36.1908 157.784 36.1875H156.818C156.703 36.1875 156.645 36.1313 156.645 36.0141V31.1531C156.644 31.1307 156.647 31.1083 156.656 31.0873C156.664 31.0664 156.677 31.0473 156.693 31.0313C156.711 31.0148 156.732 31.0021 156.755 30.9941C156.779 30.986 156.804 30.9827 156.828 30.9844H157.615C157.715 30.9844 157.773 31.0203 157.789 31.0922L157.895 31.6313C158.075 31.3846 158.309 31.1797 158.581 31.0313C158.88 30.885 159.211 30.811 159.546 30.8156C159.944 30.8117 160.335 30.9138 160.676 31.1109V31.1109Z" fill="#ADA2A2"/>
<path opacity="0.75" d="M166.004 33.1679C166.002 33.1385 166.007 33.109 166.018 33.0815C166.028 33.054 166.045 33.0291 166.067 33.0087C166.108 32.9721 166.161 32.952 166.217 32.9525H169.374C169.431 32.9495 169.486 32.968 169.529 33.004C169.548 33.0233 169.562 33.0462 169.571 33.0712C169.58 33.0962 169.584 33.1227 169.582 33.1492V33.9455C169.584 33.9727 169.579 34 169.568 34.0252C169.557 34.0503 169.541 34.0727 169.519 34.0907C169.473 34.1261 169.414 34.1444 169.355 34.1422H166.217C166.162 34.1422 166.109 34.124 166.067 34.0907C166.046 34.0727 166.029 34.0503 166.018 34.0252C166.007 34 166.003 33.9727 166.004 33.9455V33.1679Z" fill="#ADA2A2"/>
<path opacity="0.75" d="M179.273 27.4641C179.29 27.4817 179.303 27.5024 179.311 27.525C179.319 27.5475 179.323 27.5715 179.321 27.5954V36.0329C179.324 36.0811 179.306 36.1283 179.273 36.1641C179.255 36.1808 179.234 36.1936 179.211 36.2017C179.187 36.2098 179.163 36.213 179.138 36.211H178.327C178.294 36.2113 178.262 36.2015 178.235 36.1829C178.209 36.1666 178.19 36.1415 178.182 36.1125L178.071 35.4094C177.861 35.7057 177.579 35.9472 177.25 36.1125C176.914 36.2797 176.541 36.3649 176.164 36.361C175.699 36.3658 175.244 36.2405 174.851 36C174.456 35.758 174.137 35.416 173.928 35.011C173.711 34.5723 173.598 34.0917 173.598 33.6047C173.598 33.1178 173.711 32.6371 173.928 32.1985C174.135 31.7946 174.452 31.4539 174.846 31.2141C175.243 30.9748 175.702 30.8511 176.169 30.8579C176.519 30.8402 176.869 30.8995 177.192 31.0313C177.501 31.1763 177.772 31.388 177.984 31.65V27.5672C177.982 27.5205 178 27.4751 178.032 27.4407C178.049 27.4247 178.068 27.4123 178.09 27.4042C178.112 27.3961 178.135 27.3926 178.158 27.3938H179.124C179.152 27.3932 179.181 27.3993 179.207 27.4115C179.233 27.4238 179.256 27.4418 179.273 27.4641V27.4641ZM177.192 34.8844C177.427 34.7522 177.622 34.562 177.757 34.3332C177.892 34.1043 177.962 33.8449 177.96 33.5813C177.962 33.3191 177.89 33.0613 177.752 32.836C177.618 32.6116 177.425 32.4257 177.192 32.2969C176.954 32.1657 176.684 32.0978 176.41 32.1C176.142 32.0978 175.879 32.1658 175.647 32.2969C175.416 32.4277 175.224 32.6151 175.091 32.8406C174.958 33.066 174.888 33.3215 174.889 33.5813C174.888 33.8438 174.957 34.1022 175.09 34.3308C175.223 34.5594 175.415 34.7503 175.647 34.8844C175.879 35.0185 176.145 35.0882 176.415 35.086C176.688 35.0878 176.956 35.0181 177.192 34.8844V34.8844Z" fill="#ADA2A2"/>
<path opacity="0.75" d="M184.621 31.2056C185.031 31.4482 185.365 31.7951 185.587 32.2088C185.816 32.6349 185.929 33.111 185.915 33.5916C185.917 33.6655 185.903 33.739 185.873 33.807C185.843 33.875 185.798 33.9358 185.741 33.9853C185.632 34.0784 185.491 34.1285 185.345 34.1259H181.835C181.942 34.4227 182.137 34.6821 182.395 34.8713C182.65 35.0611 182.963 35.1633 183.284 35.1619C183.696 35.1415 184.092 34.9992 184.418 34.7541C184.453 34.7327 184.493 34.7198 184.534 34.7166C184.559 34.7174 184.584 34.7243 184.606 34.7366C184.628 34.7488 184.646 34.7661 184.66 34.7869L184.877 35.0822C184.977 35.2103 185.057 35.3181 185.118 35.4056C185.143 35.442 185.156 35.4842 185.157 35.5275C185.157 35.5518 185.151 35.5758 185.14 35.5976C185.129 35.6195 185.114 35.6388 185.094 35.6541C184.593 36.0951 183.941 36.3405 183.264 36.3431C182.756 36.3487 182.256 36.2208 181.816 35.9728C181.385 35.7309 181.026 35.3855 180.773 34.9697C180.517 34.5517 180.383 34.0734 180.387 33.5869C180.383 33.2249 180.454 32.8658 180.594 32.5306C180.735 32.1953 180.943 31.8907 181.207 31.6345C181.47 31.3783 181.783 31.1757 182.128 31.0385C182.474 30.9012 182.843 30.8322 183.216 30.8353C183.711 30.8272 184.198 30.9557 184.621 31.2056V31.2056ZM182.299 32.3916C182.051 32.5802 181.881 32.8474 181.816 33.1463H184.554C184.491 32.8523 184.33 32.5869 184.095 32.3916C183.854 32.1978 183.548 32.0961 183.235 32.1056C182.899 32.0945 182.568 32.1954 182.299 32.3916V32.3916Z" fill="#ADA2A2"/>
<path opacity="0.75" d="M191.561 31.0323C191.576 31.0444 191.587 31.0596 191.595 31.0766C191.602 31.0937 191.606 31.1122 191.605 31.1307C191.61 31.1538 191.61 31.1779 191.605 31.201L189.451 36.0479C189.432 36.0917 189.398 36.128 189.355 36.151C189.31 36.1783 189.258 36.1929 189.205 36.1932H188.481C188.428 36.1929 188.376 36.1783 188.331 36.151C188.288 36.128 188.254 36.0917 188.235 36.0479L186.105 31.1916C186.1 31.1685 186.1 31.1445 186.105 31.1213C186.105 31.1028 186.108 31.0843 186.115 31.0672C186.123 31.0502 186.134 31.035 186.149 31.0229C186.178 30.9978 186.216 30.9844 186.255 30.9854H187.332C187.382 30.985 187.431 30.9998 187.472 31.0276C187.512 31.0539 187.542 31.0916 187.559 31.1354L188.867 34.5526L190.171 31.1354C190.18 31.0966 190.2 31.0609 190.229 31.0323C190.27 31.0045 190.319 30.9897 190.369 30.9901H191.445C191.467 30.9893 191.488 30.9926 191.508 30.9998C191.528 31.0071 191.546 31.0181 191.561 31.0323V31.0323Z" fill="#ADA2A2"/>
<path opacity="0.75" d="M195.988 31.2038C196.399 31.4464 196.733 31.7933 196.954 32.207C197.183 32.6331 197.297 33.1092 197.282 33.5898C197.285 33.6637 197.27 33.7372 197.24 33.8052C197.21 33.8732 197.165 33.934 197.109 33.9835C196.999 34.0766 196.858 34.1268 196.713 34.1242H193.203C193.309 34.4209 193.504 34.6803 193.763 34.8695C194.018 35.0593 194.33 35.1615 194.651 35.1601C195.063 35.1397 195.459 34.9974 195.786 34.7523C195.821 34.7309 195.86 34.718 195.902 34.7148C195.926 34.7159 195.949 34.7224 195.97 34.7338C195.991 34.7451 196.009 34.7611 196.022 34.7804L196.24 35.0757C196.339 35.2039 196.42 35.3117 196.481 35.3992C196.505 35.4355 196.519 35.4777 196.52 35.521C196.519 35.5453 196.514 35.5693 196.503 35.5912C196.492 35.6131 196.476 35.6323 196.457 35.6476C195.955 36.0886 195.304 36.334 194.627 36.3367C194.119 36.3423 193.618 36.2143 193.179 35.9664C192.757 35.7226 192.407 35.3791 192.16 34.9679C191.903 34.5499 191.77 34.0716 191.774 33.5851C191.77 33.2255 191.839 32.8687 191.978 32.5353C192.117 32.202 192.323 31.8986 192.583 31.6428C192.844 31.387 193.153 31.1838 193.495 31.0449C193.837 30.906 194.203 30.8341 194.574 30.8335C195.072 30.8237 195.563 30.9522 195.988 31.2038V31.2038ZM193.666 32.3898C193.419 32.5784 193.248 32.8456 193.183 33.1445H195.921C195.858 32.8505 195.697 32.5851 195.462 32.3898C195.221 32.196 194.916 32.0943 194.603 32.1038C194.266 32.0927 193.936 32.1936 193.666 32.3898V32.3898Z" fill="#ADA2A2"/>
<path opacity="0.75" d="M199.711 27.5717V36.0092C199.714 36.0319 199.712 36.0551 199.704 36.0768C199.697 36.0986 199.684 36.1183 199.667 36.1343C199.65 36.1503 199.629 36.1622 199.607 36.1689C199.584 36.1757 199.56 36.1772 199.537 36.1733H198.538C198.515 36.1764 198.491 36.1743 198.469 36.1671C198.447 36.16 198.427 36.148 198.411 36.1321C198.395 36.1162 198.382 36.0968 198.375 36.0755C198.368 36.0542 198.365 36.0315 198.369 36.0092V27.5717C198.369 27.4686 198.425 27.417 198.538 27.417H199.537C199.653 27.417 199.711 27.4686 199.711 27.5717Z" fill="#ADA2A2"/>
<path opacity="0.75" d="M201.172 32.2025C201.428 31.7818 201.793 31.4331 202.23 31.1909C202.668 30.9487 203.162 30.8213 203.666 30.8213C204.169 30.8213 204.664 30.9487 205.101 31.1909C205.539 31.4331 205.903 31.7818 206.159 32.2025C206.417 32.6284 206.549 33.1149 206.541 33.6088C206.549 34.1033 206.415 34.5902 206.155 35.015C205.761 35.6464 205.129 36.1042 204.394 36.2914C203.659 36.4787 202.877 36.3807 202.215 36.0182C201.781 35.781 201.419 35.4365 201.167 35.0197C200.914 34.5985 200.781 34.1197 200.781 33.6322C200.781 33.1447 200.914 32.666 201.167 32.2447L201.172 32.2025ZM202.336 34.3354C202.469 34.5606 202.66 34.7481 202.891 34.8791C203.125 35.0129 203.392 35.0825 203.663 35.0807C203.933 35.0812 204.198 35.013 204.431 34.8831C204.665 34.7531 204.86 34.5659 204.996 34.34C205.132 34.1139 205.202 33.8564 205.199 33.5947C205.202 33.3301 205.132 33.0695 204.996 32.84C204.861 32.6132 204.667 32.4248 204.434 32.2938C204.2 32.1628 203.935 32.0939 203.666 32.0939C203.396 32.0939 203.131 32.1628 202.898 32.2938C202.664 32.4248 202.47 32.6132 202.336 32.84C202.2 33.0696 202.13 33.3301 202.133 33.5947C202.131 33.8547 202.201 34.1105 202.336 34.3354Z" fill="#ADA2A2"/>
<path opacity="0.75" d="M212.084 31.1904C212.478 31.4322 212.795 31.7743 213.002 32.1794C213.218 32.6184 213.331 33.0989 213.331 33.5857C213.331 34.0724 213.218 34.553 213.002 34.9919C212.795 35.397 212.478 35.7392 212.084 35.981C211.691 36.2214 211.235 36.3468 210.771 36.3419C210.419 36.3458 210.071 36.2721 209.752 36.1263C209.442 35.9812 209.17 35.7696 208.956 35.5076V38.5826C208.958 38.6059 208.955 38.6294 208.947 38.6514C208.938 38.6734 208.925 38.6934 208.908 38.71C208.891 38.7266 208.871 38.7393 208.848 38.7472C208.825 38.7552 208.801 38.7582 208.777 38.756H207.782C207.76 38.7569 207.738 38.7531 207.717 38.7451C207.696 38.737 207.677 38.7247 207.662 38.7091C207.629 38.6747 207.612 38.6293 207.613 38.5826V31.1669C207.612 31.1202 207.629 31.0748 207.662 31.0404C207.677 31.0247 207.696 31.0125 207.717 31.0044C207.738 30.9964 207.76 30.9926 207.782 30.9935H208.598C208.68 30.9935 208.729 31.0263 208.738 31.0872L208.849 31.781C209.059 31.4848 209.341 31.2434 209.67 31.0779C210.006 30.9098 210.379 30.8245 210.756 30.8294C211.226 30.8219 211.687 30.9473 212.084 31.1904V31.1904ZM211.278 34.8747C211.508 34.7431 211.699 34.5552 211.831 34.3299C211.963 34.1046 212.032 33.8496 212.031 33.5904C212.034 33.3242 211.964 33.0621 211.828 32.831C211.697 32.6061 211.507 32.4186 211.278 32.2872C211.048 32.1527 210.784 32.0829 210.515 32.0857C210.311 32.0844 210.109 32.1225 209.92 32.1977C209.732 32.2729 209.56 32.3836 209.416 32.5236C209.272 32.6636 209.158 32.83 209.081 33.0131C209.003 33.1962 208.964 33.3924 208.965 33.5904C208.963 33.8526 209.035 34.1103 209.173 34.3357C209.309 34.5591 209.504 34.7434 209.738 34.8701C209.978 35.0021 210.249 35.07 210.525 35.0669C210.789 35.0708 211.05 35.0044 211.278 34.8747Z" fill="#ADA2A2"/>
</g>
<path d="M212.12 21.7412L213.207 23.1756H207.065L206.79 22.81L203.43 18.3756L206.5 14.335L212.12 21.7412Z" fill="#26344E"/>
<path d="M206.5 9.40411L203.43 5.36348L206.79 0.929102L207.065 0.563477H213.207L212.12 1.99785L206.5 9.40411Z" fill="#26344E"/>
<path d="M190.454 21.7408L198.217 11.5033L191.014 2.00176L189.927 0.567383H196.064L196.339 0.937696L201.288 7.45801L204.363 11.5127L204.354 11.5033L204.363 11.5127L201.293 15.5533L201.288 15.558L201.283 15.5533L198.922 18.6705L195.784 22.8049L195.504 23.1752H189.367L190.454 21.7408Z" fill="#F1AB27"/>
<path opacity="0.75" d="M83.8011 34.5852V33.3721H41.9006H0V34.5852H41.9006H83.8011Z" fill="#ADA2A2"/>
</svg>
